# xmcd
#
# Track frame offsets:
# 150
# 22313
# 40140
# 64828
# 80408
# 96271
# 112940
# 133876
# 146965
# 165590
# 187380
# 208243
# 230265
# 249810
# 271640
#
# Disc length: 3828 seconds
#
#
# Revision: 0
# Processed by: cddbd v1.5.1PL0 Copyright (c) Steve Scherf et al.
# Submitted via: FreeRIP 2.70 
#
DISCID=da0ef20f
DTITLE=Andy Broad - From the roots on down
DYEAR=1999
DGENRE=Blues
TTITLE0=Morning sun (Acoustic)
TTITLE1=From the roots on down
TTITLE2=Mama and Papa/ Come on
TTITLE3=It hurts me too
TTITLE4=Ramblin on my mind
TTITLE5=Sweet little angel
TTITLE6=Your tearful eye
TTITLE7=4 weeks and a day
TTITLE8=Cut you loose
TTITLE9=The thrill is gone
TTITLE10=High heeled sneekers
TTITLE11=Hurt so many times
TTITLE12=Walk with me
TTITLE13=Preaching blues
TTITLE14=Saucer and cup
EXTD=
EXTT0=
EXTT1=
EXTT2=
EXTT3=
EXTT4=
EXTT5=
EXTT6=
EXTT7=
EXTT8=
EXTT9=
EXTT10=
EXTT11=
EXTT12=
EXTT13=
EXTT14=
PLAYORDER=
